<svg id="Слой_1" data-name="Слой 1" xmlns="http://www.w3.org/2000/svg" viewBox="0 0 340.16 340.16"><defs><style>.cls-1{fill:#1088ca;}.cls-2{fill:#fff;}</style></defs><title>Монтажная область 1</title><rect class="cls-1" width="340.16" height="340.16" rx="59.53"/><path class="cls-2" d="M457.31,315.85c-64.8,0-117.33,37.08-117.33,82.82a62.76,62.76,0,0,0,10.31,34l-31,54.74,71-20.75a131.89,131.89,0,0,0,13.49,5.71A52.19,52.19,0,0,1,402.54,461c0-26,19.19-48.78,48.1-61.75a15.23,15.23,0,0,1-3.39-2.5q-4.61-4.57-5-12.37l0-1.88a20.91,20.91,0,0,1,2.08-9.5,14.8,14.8,0,0,1,6-6.41,18,18,0,0,1,9.12-2.24q8,0,12.62,5t4.61,13.49v.39a22.09,22.09,0,0,1-1.37,8q2.89-.65,5.86-1.15a22,22,0,0,1-1-5.66l0-1.88a20.91,20.91,0,0,1,2.08-9.5,14.8,14.8,0,0,1,6-6.41,18,18,0,0,1,9.12-2.24q8,0,12.62,5t4.61,13.49v.39a24.76,24.76,0,0,1-.48,4.93c23,1.23,43.81,7.72,60.16,17.79a60.47,60.47,0,0,0,.45-7.26C574.64,352.93,522.11,315.85,457.31,315.85Zm-20.47,84.82H425.35v-20h-17v20H396.76v-48h11.56v19h17v-19h11.49Z"/><path class="cls-2" d="M210.86,157.09c22.74,0,44,6.16,59.84,17.35,14.8,10.45,22.94,24,22.94,38.14a39.55,39.55,0,0,1-6.58,21.51,10,10,0,0,0-.27,10.31l12.38,21.85-32.5-9.5a9.91,9.91,0,0,0-7.22.62c-14.24,7-31,10.71-48.59,10.71-22.74,0-44-6.16-59.84-17.35-14.79-10.45-22.94-24-22.94-38.15s8.15-27.69,22.94-38.14c15.85-11.19,37.1-17.35,59.84-17.35m0-10c-51.24,0-92.78,29.32-92.78,65.49s41.54,65.5,92.78,65.5c19.71,0,38-4.34,53-11.74h0L320,282.76l-24.53-43.29a49.59,49.59,0,0,0,8.15-26.89c0-36.17-41.54-65.49-92.78-65.49Z"/><path class="cls-2" d="M94.39,215.08a140.91,140.91,0,0,0,14.11,6,54.58,54.58,0,0,1-1.3-11.87c0-42.21,48.48-76.44,108.29-76.44,27.25,0,52.15,7.11,71.19,18.84a63.65,63.65,0,0,0,.47-7.59c0-47.83-54.93-86.6-122.68-86.6S41.79,96.17,41.79,144a65.53,65.53,0,0,0,10.78,35.54L20.14,236.78Z"/></svg>