<svg id="Слой_1" data-name="Слой 1" xmlns="http://www.w3.org/2000/svg" viewBox="0 0 340.16 340.16"><defs><style>.cls-1{fill:#1088ca;}.cls-2{fill:#fff;}</style></defs><title>Монтажная область 1</title><rect class="cls-1" width="340.16" height="340.16" rx="59.53"/><path class="cls-2" d="M209.08,158.09c21.66,0,41.89,5.87,57,16.52,14,9.9,21.76,22.73,21.76,36.12a37.42,37.42,0,0,1-6.23,20.33,10,10,0,0,0-.27,10.31l11.31,20-30.05-8.78a10.08,10.08,0,0,0-7.23.62c-13.55,6.67-29.55,10.2-46.27,10.2-21.65,0-41.89-5.87-57-16.52-14-9.9-21.75-22.73-21.75-36.12s7.72-26.22,21.75-36.12c15.09-10.65,35.33-16.52,57-16.52m0-10c-49,0-88.73,28-88.73,62.64s39.72,62.64,88.73,62.64c18.85,0,36.32-4.15,50.69-11.22h0l53.71,15.69L290,236.44a47.44,47.44,0,0,0,7.8-25.71c0-34.59-39.73-62.64-88.74-62.64Z"/><path class="cls-2" d="M205.06,226.89h-7.28V193.81h7.28Z"/><path class="cls-2" d="M209.48,197.58A3.23,3.23,0,0,1,210.6,195a4.76,4.76,0,0,1,5.81,0,3.44,3.44,0,0,1,0,5.08,4.76,4.76,0,0,1-5.81,0A3.22,3.22,0,0,1,209.48,197.58Zm7.71,29.31h-7.28v-23.3h7.28Z"/><path class="cls-2" d="M166.87,139.23q5.94,0,6.07-9.12V129q0-9.59-6.13-9.59-5.56,0-6,8.27l0,2c0,3.29.51,5.71,1.55,7.25A5.15,5.15,0,0,0,166.87,139.23Z"/><path class="cls-2" d="M210.81,130.11V129q0-9.59-6.12-9.59-5.56,0-6,8.27l0,2a18.1,18.1,0,0,0,.68,5.39c3.61-.35,7.28-.57,11-.65A17.81,17.81,0,0,0,210.81,130.11Z"/><path class="cls-2" d="M164.71,62.31c-64.8,0-117.33,37.08-117.33,82.83a62.76,62.76,0,0,0,10.31,34l-31,54.74,71-20.75a136.15,136.15,0,0,0,13.49,5.71,52.82,52.82,0,0,1-1.24-11.34c0-26,19.19-48.78,48.11-61.75a15.1,15.1,0,0,1-3.4-2.51q-4.6-4.56-5-12.36l0-1.88a21.11,21.11,0,0,1,2.07-9.51,14.89,14.89,0,0,1,6-6.4,18,18,0,0,1,9.13-2.24q8,0,12.61,5T184,129.28v.4a21.92,21.92,0,0,1-1.37,8c1.93-.43,3.89-.81,5.86-1.15a22.53,22.53,0,0,1-1-5.66l0-1.88a21.11,21.11,0,0,1,2.07-9.51,14.89,14.89,0,0,1,6-6.4,18,18,0,0,1,9.13-2.24q8,0,12.61,5t4.61,13.48v.4a24.76,24.76,0,0,1-.48,4.93c22.95,1.22,43.82,7.71,60.16,17.78a60.18,60.18,0,0,0,.45-7.25C282,99.39,229.51,62.31,164.71,62.31Zm-20.46,84.83h-11.5v-20h-17v20H104.16v-48h11.56v19h17v-19h11.5Z"/></svg>